<svg width="92" height="92" viewBox="0 0 92 92" fill="none" xmlns="http://www.w3.org/2000/svg">
<mask id="mask0_3265_2071" style="mask-type:luminance" maskUnits="userSpaceOnUse" x="0" y="0" width="92" height="92">
<path d="M0.165039 0.286987H91.5909V91.7128H0.165039V0.286987Z" fill="white"/>
</mask>
<g mask="url(#mask0_3265_2071)">
<g opacity="0.7">
<path d="M39.466 75.8035C38.5161 75.8035 37.8037 76.5159 37.8037 77.4658C37.8037 78.4156 38.5161 79.128 39.466 79.128C40.4159 79.128 41.1283 78.4156 41.1283 77.4658C41.1283 76.5159 40.4159 75.8035 39.466 75.8035ZM39.466 78.5344C38.8723 78.5344 38.3974 78.0594 38.3974 77.4658C38.3974 76.8721 38.8723 76.3971 39.466 76.3971C40.0597 76.3971 40.5346 76.8721 40.5346 77.4658C40.4159 78.0594 39.9409 78.5344 39.466 78.5344Z" fill="white"/>
<path d="M45.6402 81.1458C44.8091 81.1458 44.0967 81.8582 44.0967 82.6893C44.0967 83.5205 44.8091 84.2329 45.6402 84.2329C46.4714 84.2329 47.1838 83.5205 47.1838 82.6893C47.1838 81.8582 46.4714 81.1458 45.6402 81.1458Z" fill="white"/>
<path d="M33.7663 71.7659C33.2913 71.7659 32.8164 72.1221 32.8164 72.7157C32.8164 73.1907 33.1726 73.6656 33.7663 73.6656C34.2412 73.6656 34.7162 73.3094 34.7162 72.7157C34.7162 72.1221 34.2412 71.7659 33.7663 71.7659Z" fill="white"/>
<path d="M45.8775 10.6166C46.7087 10.6166 47.4211 9.90424 47.4211 9.07309C47.4211 8.24195 46.7087 7.52954 45.8775 7.52954C45.0464 7.52954 44.334 8.24195 44.334 9.07309C44.334 9.90424 45.0464 10.6166 45.8775 10.6166Z" fill="white"/>
<path d="M51.2204 14.417C51.6953 14.417 52.1703 14.0608 52.1703 13.4671C52.1703 12.9922 51.8141 12.5172 51.2204 12.5172C50.7454 12.5172 50.2705 12.8734 50.2705 13.4671C50.2705 13.942 50.6267 14.417 51.2204 14.417Z" fill="white"/>
<path d="M45.4027 14.8921L37.21 23.0848H37.8036H38.991L45.8776 16.1982L52.7642 23.0848H54.189H54.5452L46.3525 14.8921C45.9963 14.6546 45.6401 14.6546 45.4027 14.8921Z" fill="white"/>
<path d="M81.6167 56.2118L91.4717 46.3568C91.5905 46.2381 91.5905 46.1193 91.5905 46.0006C91.5905 45.8819 91.5905 45.7631 91.4717 45.6444L81.6167 35.7894V25.8157C81.6167 25.3407 81.2605 24.9845 80.7856 24.9845L74.8488 24.8658C74.8488 24.9845 74.8488 24.9845 74.8488 24.8658V26.5281C75.68 26.5281 76.6299 26.6468 77.461 26.6468C78.1734 26.6468 78.7671 27.2405 78.7671 27.7154V27.8342V62.0298C78.7671 62.2673 78.6484 62.5048 78.5296 62.6235C78.4109 62.7422 78.1734 62.861 77.936 62.861C70.5744 62.6235 69.5058 62.386 66.4187 61.6736C65.4688 61.4361 64.2815 61.1987 62.6192 60.8425C59.8883 60.2488 57.5136 60.0113 55.4951 60.0113C52.0518 60.0113 49.4396 60.8425 46.9462 62.6235C46.8274 62.7422 46.4712 62.861 45.9963 62.861C45.5213 62.861 45.2839 62.6235 45.0464 62.6235C42.553 60.7237 40.0595 60.0113 36.4975 60.0113C34.479 60.0113 32.223 60.2488 29.3734 60.8425C27.7111 61.1987 26.5238 61.4361 25.5739 61.6736C22.4868 62.386 21.5369 62.6235 14.0566 62.861C13.8191 62.861 13.5817 62.7422 13.4629 62.6235C13.3442 62.5048 13.2255 62.2673 13.2255 62.0298C13.2255 60.2488 13.2255 27.8342 13.2255 27.8342V27.7154C13.3442 27.1218 13.8191 26.6468 14.5315 26.6468C15.3627 26.6468 16.3126 26.6468 17.1437 26.5281C17.1437 25.4595 17.1437 24.7471 17.1437 24.7471V24.8658L11.207 24.9845C10.732 24.9845 10.3758 25.3407 10.3758 25.8157V35.5519L0.164631 45.7631C0.0458966 45.8819 0.0458984 46.0006 0.0458984 46.1193C0.0458984 46.2381 0.0458966 46.3568 0.164631 46.4755L10.2571 56.568V65.2357C10.2571 65.4731 10.3758 65.7106 10.4946 65.8293C10.6133 65.9481 10.8508 66.0668 11.0882 66.0668L19.2809 65.5919L45.2839 91.5948C45.5213 91.7135 45.7588 91.7135 45.8775 91.7135C45.9963 91.7135 46.115 91.7135 46.2338 91.5948L72.3554 65.4731L80.7856 65.9481C81.0231 65.9481 81.2605 65.8293 81.3793 65.7106C81.498 65.5919 81.6167 65.3544 81.6167 65.1169L81.498 37.2142L90.2844 46.0006L81.6167 54.6683V56.2118ZM10.3758 54.9057L1.47072 46.0006L10.4946 36.9768L10.3758 54.9057ZM45.9963 63.9296L56.9199 64.5232L45.7588 75.6843L34.7165 64.642L45.9963 63.9296ZM45.8775 90.4074L20.9432 65.4731L33.1729 64.7607L45.5213 77.1091C45.6401 77.2279 45.7588 77.3466 45.9963 77.3466C46.115 77.3466 46.3525 77.3466 46.4712 77.1091L58.5822 64.642L70.8119 65.3544L45.8775 90.4074Z" fill="white"/>
<path d="M23.0807 24.3909L45.8778 1.59384L67.4875 23.2036C67.725 23.2036 67.8437 23.4411 67.8437 23.5598L68.5561 24.2722H69.031H70.0997L46.234 0.406496C45.9965 0.169026 45.6403 0.169026 45.5215 0.406496L21.5371 24.3909H22.8432H23.0807Z" fill="white"/>
</g>
<path d="M78.6483 27.7154C78.5296 27.1217 78.0546 26.6468 77.3422 26.6468C76.3924 26.6468 75.5612 26.6468 74.7301 26.5281C74.7301 25.4595 74.7301 24.747 74.7301 24.747C74.7301 24.747 74.9675 24.0346 74.2551 24.0346C74.2551 24.0346 74.1364 24.0346 74.0177 24.0346C72.3554 24.2721 70.6931 24.3908 69.1495 24.3908C68.7933 24.3908 68.3184 24.3908 67.9622 24.3908V23.6784C67.9622 23.441 67.8434 23.3222 67.606 23.3222L61.1943 22.8473C61.0756 22.8473 60.9568 22.8473 60.8381 22.966C60.7194 23.0848 60.7194 23.2035 60.7194 23.3222V23.6784C58.3447 23.3222 56.0887 23.0848 54.0702 23.0848C51.1018 23.0848 48.3709 23.7972 45.9962 25.9344C43.5028 23.7972 40.8906 23.0848 37.9223 23.0848C33.6478 23.0848 28.7797 24.3908 22.9617 24.3908C21.4181 24.3908 19.7558 24.2721 18.0936 24.0346C17.9748 24.0346 17.9748 24.0346 17.8561 24.0346C17.1437 24.0346 17.3811 24.747 17.3811 24.747C17.3811 24.747 17.3811 25.4595 17.3811 26.5281C16.55 26.5281 15.6001 26.6468 14.769 26.6468C14.0566 26.6468 13.4629 27.2405 13.4629 27.7154V27.8342V62.0298C13.4629 62.2673 13.5816 62.5047 13.7004 62.6235C13.8191 62.7422 14.0566 62.8609 14.294 62.8609C21.6556 62.6235 22.7242 62.386 25.8113 61.6736C26.7612 61.4361 27.9485 61.1986 29.6108 60.8424C32.3417 60.2488 34.7164 60.0113 36.7349 60.0113C40.1782 60.0113 42.7904 60.8424 45.2838 62.6235C45.4026 62.7422 45.7588 62.8609 46.2337 62.8609C46.7086 62.8609 46.9461 62.6235 47.1836 62.6235C49.677 60.7237 52.1704 60.0113 55.7325 60.0113C57.751 60.0113 60.007 60.2488 62.8566 60.8424C64.5189 61.1986 65.7062 61.4361 66.6561 61.6736C69.7432 62.386 70.6931 62.6235 78.1734 62.8609C78.4109 62.8609 78.6483 62.7422 78.7671 62.6235C78.8858 62.5047 79.0045 62.2673 79.0045 62.0298C79.0045 60.2488 79.0045 27.8342 79.0045 27.8342C78.6483 27.7154 78.6483 27.7154 78.6483 27.7154ZM46.4712 26.5281C48.4897 24.747 50.8644 23.9159 54.0702 23.9159C55.97 23.9159 58.1072 24.1534 60.3632 24.5096H60.8381L60.7194 43.9821C60.7194 44.1008 60.8381 44.3383 60.9568 44.3383H61.0756C61.1943 44.3383 61.313 44.3383 61.313 44.2196L64.6376 41.0137L67.7247 44.1008C67.8434 44.2196 68.0809 44.2196 68.1997 44.2196C68.3184 44.1008 68.4371 43.9821 68.4371 43.8634L67.9622 25.222H69.1495C70.8118 25.222 72.3554 25.1033 73.8989 24.8658C73.8989 36.858 73.7802 54.1933 73.6615 58.1115C73.0678 58.1115 72.3554 58.1115 71.8804 57.9928C67.9622 57.8741 66.1812 57.7553 60.4819 56.568C57.8697 55.9743 55.7325 55.7368 53.8327 55.7368C50.7456 55.7368 48.4897 56.4492 46.3524 58.2303C46.3524 53.2434 46.3524 37.5704 46.4712 26.5281ZM22.8429 25.222C26.0488 25.222 29.0172 24.8658 31.6293 24.5096C33.8853 24.2721 35.9038 23.9159 37.9223 23.9159C41.1281 23.9159 43.5028 24.747 45.5213 26.5281C45.64 37.5704 45.7588 53.2434 45.64 58.349C43.5028 56.568 41.2468 55.8556 38.1597 55.8556C36.3787 55.8556 34.2415 56.093 31.5106 56.6867C25.8113 57.8741 24.0303 57.8741 20.112 58.1115C19.5184 58.1115 18.9247 58.1115 18.331 58.2303C18.2123 54.312 18.0936 36.9767 18.0936 24.9845C19.6371 25.1033 21.1807 25.222 22.8429 25.222ZM36.6162 59.0614C34.5977 59.0614 32.223 59.2989 29.3734 59.8926C22.4867 61.3174 23.9116 61.5548 14.1753 61.9111C14.1753 60.13 14.1753 27.7154 14.1753 27.7154C14.1753 27.7154 14.294 27.3592 14.769 27.3592C15.6001 27.3592 16.55 27.3592 17.3811 27.2405C17.3811 35.077 17.4999 58.1115 17.6186 58.9427C23.6741 58.7052 24.8614 58.9427 31.7481 57.5179C34.3602 57.0429 36.3787 56.6867 38.1597 56.6867C41.603 56.6867 43.7403 57.7553 45.64 59.5364V61.9111C43.1466 60.13 40.5344 59.0614 36.6162 59.0614ZM77.8172 62.0298C68.1996 61.6736 69.5057 61.4361 62.6191 60.0113C59.7695 59.4176 57.3948 59.1801 55.3763 59.1801C51.458 59.1801 48.8459 60.2488 46.3524 62.0298C46.3524 61.7923 46.3524 59.6551 46.3524 59.6551C48.2522 57.8741 50.2707 56.9242 53.714 56.9242C55.495 56.9242 57.5135 57.1617 60.1257 57.7553C67.0123 59.1802 68.1997 58.9427 74.2551 59.1801C74.3739 58.349 74.4926 35.3144 74.4926 27.4779C75.3237 27.4779 76.2736 27.5967 77.1048 27.5967C77.5797 27.5967 77.6984 27.9529 77.6984 27.9529C77.6984 27.9529 77.8172 60.13 77.8172 62.0298Z" fill="white"/>
</g>
</svg>
